<svg width="61" height="48" viewBox="0 0 61 48" fill="none" xmlns="http://www.w3.org/2000/svg">
<path d="M1.01693 16.053C1.01213 10.3086 2.56504 1.3915 2.56504 1.3915L12.3286 10.2315C12.3286 10.2315 19.8847 14.1705 25.1063 15.6224C29.5485 16.8576 36.7727 17.5359 36.7727 17.5359C36.7727 17.5359 44.3832 17.0518 49.0597 15.6865C53.5593 14.3729 60.0995 10.8546 60.0995 10.8546C60.0995 10.8546 59.8602 15.2389 58.9945 17.8857C57.9122 21.1944 56.3901 27.3268 54.4666 30.2264C50.8011 35.752 50.8724 35.6409 45.8519 39.9223C41.621 43.5303 36.901 44.8467 31.5843 46.2003C26.9108 47.3901 23.921 46.9606 19.3446 45.6212C14.3342 44.1547 11.4844 42.5239 7.92331 38.6782C4.65824 35.1522 3.39118 32.4579 2.03076 27.7827C0.753532 23.3934 1.02079 20.6608 1.01693 16.053Z" fill="black" stroke="black"/>
</svg>
