<svg width="147" height="156" viewBox="0 0 147 156" fill="none" xmlns="http://www.w3.org/2000/svg">
<path d="M109.642 120.049C104.718 117.447 103.869 113.144 98.8706 110.689C91.8345 107.234 86.7094 109.58 78.9104 108.953C70.9964 108.318 66.3962 109.164 58.6357 107.461C52.2616 106.063 48.4101 105.406 42.833 101.999C36.9194 98.3864 34.6026 94.8859 30.1723 89.5512C24.2557 82.427 20.234 78.3137 17.6121 69.4386C15.7235 63.0455 15.0792 59.0406 16.0296 52.4561C17.2036 44.322 19.7853 39.8043 24.9324 33.4212C29.9065 27.2526 33.7937 24.3599 40.9697 20.9989C48.6468 17.4033 53.7822 16.0302 62.2548 16.6507C70.5679 17.2596 75.6749 18.8425 82.3929 23.8125C88.6672 28.4543 91.582 32.4357 94.636 39.6186C96.5772 44.184 96.5395 47.1202 97.6491 51.9525C100.709 65.2813 96.2943 75.1574 104.17 86.3529C108.751 92.8653 114.18 93.8519 119.558 99.7233C123.46 103.984 128.472 105.655 128.618 111.42C128.762 117.136 125.859 122.124 120.305 123.422C116.063 124.414 113.507 122.091 109.642 120.049Z" fill="black" stroke="black"/>
<ellipse cx="54.6208" cy="60.3331" rx="26" ry="24.5" transform="rotate(-95.4148 54.6208 60.3331)" fill="#ECEF4D"/>
<ellipse cx="52.5827" cy="60.0242" rx="14.5" ry="13.5" transform="rotate(-95.4148 52.5827 60.0242)" fill="#DB0D0D"/>
<ellipse cx="53.5781" cy="59.9297" rx="10.5" ry="9.5" transform="rotate(-95.4148 53.5781 59.9297)" fill="black"/>
</svg>
