<svg width="311" height="304" viewBox="0 0 311 304" fill="none" xmlns="http://www.w3.org/2000/svg">
<ellipse cx="149" cy="152" rx="143" ry="152" fill="black"/>
<path d="M122 78C122 101.253 104.26 120 82.5 120C60.7403 120 43 101.253 43 78C43 54.7468 60.7403 36 82.5 36C104.26 36 122 54.7468 122 78Z" fill="#519F75" stroke="black" stroke-width="2"/>
<path d="M150 142.5C150 166.029 132.036 185 110 185C87.9635 185 70 166.029 70 142.5C70 118.971 87.9635 100 110 100C132.036 100 150 118.971 150 142.5Z" fill="#4078A7" stroke="black" stroke-width="2"/>
<path d="M284 64.5C284 88.017 265.824 107 243.5 107C221.176 107 203 88.017 203 64.5C203 40.983 221.176 22 243.5 22C265.824 22 284 40.983 284 64.5Z" fill="#EA1C1C" stroke="black" stroke-width="2"/>
<path d="M310 201.5C310 224.454 292.058 243 270 243C247.942 243 230 224.454 230 201.5C230 178.546 247.942 160 270 160C292.058 160 310 178.546 310 201.5Z" fill="white" stroke="black" stroke-width="2"/>
<ellipse cx="82.5" cy="77" rx="20.5" ry="21" fill="white"/>
<ellipse cx="114" cy="143.5" rx="20" ry="20.5" fill="white"/>
<ellipse cx="244" cy="65" rx="19" ry="20" fill="white"/>
<path d="M94 223C94 246.23 75.8344 265 53.5 265C31.1656 265 13 246.23 13 223C13 199.77 31.1656 181 53.5 181C75.8344 181 94 199.77 94 223Z" fill="white" stroke="black" stroke-width="2"/>
<path d="M81 136.5C81 160.029 63.0365 179 41 179C18.9635 179 1 160.029 1 136.5C1 112.971 18.9635 94 41 94C63.0365 94 81 112.971 81 136.5Z" fill="#ED71D2" stroke="black" stroke-width="2"/>
<path d="M94 223C94 246.23 75.8344 265 53.5 265C31.1656 265 13 246.23 13 223C13 199.77 31.1656 181 53.5 181C75.8344 181 94 199.77 94 223Z" fill="#ECFF0F" stroke="black" stroke-width="2"/>
<ellipse cx="56.5" cy="222" rx="19.5" ry="20" fill="white"/>
<ellipse cx="37" cy="136" rx="19" ry="21" fill="white"/>
</svg>
