<svg width="816" height="513" viewBox="0 0 816 513" fill="none" xmlns="http://www.w3.org/2000/svg">
<path d="M126.481 209.562L131.347 228.374L115.581 223.049L126.708 238.253L109.433 241.003L123.159 253.508L108.289 262.078L124.335 269.644L113.686 281.785L130.486 285.314L124.31 299.681L140.803 297.382L138.819 311.735L153.439 304.511L156.711 320.64L166.046 308.054L176.139 325.055L181.785 309.793L195.763 320.952L194.056 303.922L211.696 314.172L205.768 293.57L221.003 298L211.441 281.894L227.682 280.941L213.956 268.435L227.792 261.663L210.683 252.307L223.961 241.053L205.343 239.773L212.302 224.954L196.341 228.148L196.982 209.765L185.27 220.117L179.873 200.41L170.035 215.687L160.976 196.889L156.393 213.941L142.135 200.541L143.59 218.917L126.481 209.562Z" fill="black"/>
<path d="M575.499 66.8016L607.801 120.59L552.443 92.1533L599.798 137.365L539.514 127.285L599.128 152.185L535.61 165.049L595.195 172.196L545.282 200.632L603.254 190.928L565.657 234.56L615.57 206.124L595.928 258.407L631.444 214.85L627.971 274.581L649.493 220.116L667.736 284.135L667.435 219.891L698.743 272.024L686.853 213.271L730.434 253.969L701.503 200.482L753.785 227.339L708.914 186.264L767.412 195.141L713.049 168.36L774.191 156.85L712.228 151.057L759.362 119.763L701.295 132.852L744.936 86.8883L691.853 117.13L714.665 63.0409L676.772 107.952L678.955 47.8447L659.219 103.513L641.971 41.1493L640.983 105.018L605.606 49.6498L625.231 110.66L575.499 66.8016Z" fill="black"/>
<path d="M444.759 141.284L536.954 145.994" stroke="black" stroke-width="2"/>
<path d="M219.84 205.033L270.92 175.933" stroke="black" stroke-width="2"/>
<path d="M120.933 313.805C120.933 313.805 103.597 334.704 95.2761 348.664C84.6267 366.53 75.4427 395.345 75.4427 395.345" stroke="black" stroke-width="2"/>
<ellipse rx="39.3664" ry="40.9338" transform="matrix(0.868888 -0.495008 0.514834 0.85729 55.2791 457.965)" fill="#EA1C1C"/>
<path d="M307.015 82.6361L321.612 112.45L289.35 102.793L312.344 130.066L277.844 129.534L308.37 149.152L273.274 156.81L310.328 167.101L281.574 183.482L316.394 182.71L296.628 208.55L330.355 194.943L320.537 226.33L345.458 205.403L344.721 237.224L362.662 210.182L373.151 242.336L379.319 208.542L401.491 236.283L392.783 199.75L423.171 222.81L407.891 190.022L441.338 203.489L416.519 175.013L453.346 177.583L419.854 158.534L456.091 149.105L418.398 141.42L449.434 121.496L410.871 128.887L432.737 97.3646L402.34 114.682L413.757 76.7765L387.237 104.221L387.109 67.2862L370.354 98.1393L357.538 63.9465L350.548 98.2081L330.84 69.0631L334.255 104.126L307.015 82.6361Z" fill="black"/>
<path d="M36.675 420.869C36.675 420.869 44.3563 418.254 49.4879 417.743C53.818 417.312 56.3361 417.267 60.6315 417.953C66.4195 418.876 69.6291 420.194 74.7094 423.048C80.0233 426.034 82.9252 428.208 86.7394 432.888C89.4334 436.193 90.5416 438.377 92.3414 442.216C94.3586 446.519 95.614 449.036 96.1966 453.732C96.732 458.048 98.0981 461.292 95.5255 464.845C91.4665 470.451 84.4264 465.614 77.4978 464.384C69.8565 463.028 65.3915 461.765 58.8162 457.738C44.318 448.86 36.675 420.869 36.675 420.869Z" fill="#ECEF4D"/>
<path d="M31.27 479.393C31.27 479.393 34.4441 478.309 36.5636 478.095C38.352 477.914 39.3919 477.893 41.1651 478.172C43.5544 478.548 44.8788 479.089 46.9743 480.261C49.1662 481.487 50.3628 482.381 51.934 484.306C53.0438 485.666 53.4996 486.565 54.2397 488.145C55.0692 489.917 55.5855 490.953 55.8223 492.887C56.0398 494.665 59.2572 497.204 57.5212 497.823C54.7205 498.823 51.2463 497.844 48.092 497.291C44.9377 496.739 38.0279 493.646 35.3159 491.992C29.3363 488.345 31.27 479.393 31.27 479.393Z" fill="#ECEF4D"/>
</svg>
