<svg width="82" height="84" viewBox="0 0 82 84" fill="none" xmlns="http://www.w3.org/2000/svg">
<path d="M67.4939 69.9016C62.1642 75.9609 52.243 83.8388 52.243 83.8388L50.1431 64.9593C50.1431 64.9593 45.8225 53.4074 41.6572 46.7634C38.1135 41.1109 31.1152 33.3208 31.1152 33.3208C31.1152 33.3208 22.6295 26.3776 16.4234 23.2367C10.452 20.2146 0.278572 17.5176 0.278572 17.5176C0.278572 17.5176 4.60297 13.1309 7.97522 11.189C12.1908 8.7616 19.4933 3.78867 24.2174 2.61625C33.2196 0.382076 33.0411 0.429375 42.3185 0.833684C50.1369 1.17441 56.3434 4.40938 63.2146 8.18968C69.2546 11.5127 72.0128 14.8934 75.6012 20.7872C79.5299 27.2398 81.0246 31.7496 81.2134 39.2907C81.3865 46.2048 80.2222 50.2856 77.3168 56.5456C74.5891 62.4228 71.7692 65.0412 67.4939 69.9016Z" fill="#048C52"/>
</svg>
