<svg width="1221" height="500" viewBox="0 0 1221 500" fill="none" xmlns="http://www.w3.org/2000/svg">
<path d="M952.549 215.04C952.062 215.523 952.318 216.328 953.119 216.838L966.18 225.155C966.982 225.666 968.025 225.688 968.512 225.205C968.998 224.722 968.742 223.916 967.941 223.406L956.332 216.013L963.375 209.016C963.861 208.533 963.606 207.728 962.805 207.218C962.003 206.707 960.959 206.685 960.473 207.168L952.549 215.04ZM1072.38 217.213L953.596 214.692L954.403 217.236L1073.19 219.756L1072.38 217.213Z" fill="black"/>
<path d="M621.063 42.8922L621.834 44.2135L621.063 42.8922ZM719.024 44.0172L718.951 42.7128L719.024 44.0172ZM539.618 83.9468L541.005 84.9653L539.618 83.9468ZM791.6 73.6108L792.36 72.6511L791.6 73.6108ZM843.355 167.063C844.089 167.655 845.114 167.771 845.644 167.321L854.29 159.994C854.821 159.544 854.656 158.7 853.923 158.107C853.189 157.515 852.164 157.399 851.634 157.849L843.949 164.362L833.324 155.78C832.591 155.188 831.566 155.072 831.036 155.522C830.505 155.972 830.67 156.816 831.403 157.409L843.355 167.063ZM621.834 44.2135C654.754 38.287 682.432 37.8318 719.096 45.3217L718.951 42.7128C681.704 35.1039 653.551 35.5834 620.291 41.571L621.834 44.2135ZM513.583 137.159C518.067 118.367 523.648 102.461 541.005 84.9653L538.232 82.9283C520.564 100.738 514.879 116.979 510.355 135.937L513.583 137.159ZM541.005 84.9653C562.618 63.1785 585.087 50.8289 621.834 44.2135L620.291 41.571C582.984 48.2873 560.112 60.8724 538.232 82.9283L541.005 84.9653ZM719.096 45.3217C733.776 48.3204 745.315 51.4857 756.357 55.9561C767.395 60.4244 778.017 66.2292 790.84 74.5706L792.36 72.6511C779.365 64.1974 768.453 58.2193 757.033 53.5965C745.619 48.9758 733.779 45.7418 718.951 42.7128L719.096 45.3217ZM790.84 74.5706C800.423 80.8042 808.493 89.5791 815.213 99.3529C821.925 109.116 827.223 119.778 831.306 129.683C835.386 139.582 838.237 148.685 840.067 155.316C840.981 158.63 841.64 161.323 842.07 163.186C842.285 164.117 842.442 164.84 842.546 165.329C842.598 165.573 842.636 165.759 842.661 165.883C842.674 165.945 842.683 165.991 842.689 166.022C842.692 166.037 842.694 166.049 842.696 166.056C842.696 166.06 842.697 166.062 842.697 166.064C842.697 166.065 842.698 166.065 842.698 166.066C842.698 166.066 842.698 166.066 844.316 166.249C845.934 166.432 845.934 166.431 845.934 166.43C845.934 166.43 845.934 166.429 845.934 166.427C845.933 166.425 845.932 166.421 845.932 166.417C845.93 166.408 845.927 166.395 845.924 166.378C845.917 166.345 845.907 166.295 845.894 166.23C845.868 166.099 845.828 165.907 845.775 165.656C845.668 165.153 845.508 164.416 845.289 163.47C844.853 161.577 844.185 158.849 843.26 155.497C841.41 148.794 838.526 139.581 834.391 129.549C830.258 119.523 824.86 108.64 817.965 98.6118C811.078 88.5945 802.631 79.3322 792.36 72.6511L790.84 74.5706Z" fill="black"/>
<path d="M13.8539 255.858C13.8539 255.858 135.739 191.429 192.056 169.66C241.598 150.51 403.001 163.01 455.647 166.938C528.995 172.41 506.128 230.396 479.773 267.218C453.222 304.314 403.503 314.848 351.839 309.974C306.617 305.708 279.913 288.812 276.723 258.361C274.044 232.781 302.335 204.766 344.531 189.46C399.89 169.379 428.051 177.7 501.34 177.327C527.897 177.192 542.764 176.751 566.506 167.757C583.954 161.146 606.595 144.403 606.595 144.403C606.595 144.403 629.156 131.297 649.295 125.128C677.465 116.498 709.972 109.61 742.283 121.042C751.739 124.387 765.19 127.708 773.309 137.078C781.753 146.823 782.27 156.604 780.944 167.269C778.004 190.93 762.35 212.45 752.646 235.094C745.734 251.224 738.172 264.29 731.909 283.484C718.971 323.138 712.771 370.161 719.454 386.379C725.355 400.697 747.889 431.411 783.943 438.412C808.255 443.133 825.265 440.989 849.724 433.219C902.581 416.427 916.998 387.26 935.667 345.159C942.444 329.877 946.094 302.461 946.094 302.461C946.094 302.461 948.201 283.153 944.44 271.701C940.819 260.672 938.79 253.334 928.127 245.873C915.227 236.846 902.953 234.428 884.415 236.378C866.761 238.236 853.145 242.52 839.091 252.803C823.921 263.902 818.907 277.197 821.607 292.306C823.323 301.903 825.114 310.614 832.398 318.154C837.415 323.346 846.851 332.115 858.054 339.616C883.049 356.349 918.043 376.355 966.431 385.123C1004.22 391.971 1028.82 398.619 1067.76 389.832C1110.28 380.239 1142.88 366.492 1164.81 336.072C1191.76 298.682 1185.41 257.481 1145.36 233.097C1121.88 218.802 1069.64 218.327 1069.64 218.327" stroke="black" stroke-width="3" stroke-linecap="round" stroke-linejoin="round"/>
</svg>
