<svg width="348" height="372" viewBox="0 0 348 372" fill="none" xmlns="http://www.w3.org/2000/svg">
<path d="M146.012 201.269L141.032 225.202L117.412 216.639L122.095 241.284L102.315 240.105L104.715 244.72L96.5436 249.111L110.234 255.334L95.7076 263.141L105.663 266.648L93.8597 272.991L103.951 272.292L94.9755 281.839L104.827 280.678L99.5351 290.608L109.866 290.37L89.4379 301.348L106.578 297.451L96.5913 302.818L114.186 298.677L98.7511 306.972L116.586 303.292L100.477 322.577L120.905 311.599L114.116 326.467" stroke="black" stroke-width="3"/>
<path d="M155.046 49.9785L161.985 52.1539M168.925 54.3293L161.985 52.1539M161.985 52.1539L157.382 72.3421L147.783 53.8819L141.551 73.1735L131.952 54.7134L126.252 77.2619L113.929 60.2655L112.504 78.746L97.6969 63.6749L98.8846 86.0649C93.3805 79.5753 82.5317 67.5734 83.1701 71.4817C83.8084 75.39 86.649 86.7357 87.9895 91.92L70.0052 78.5566L74.8246 98.9949L55.4784 86.3635L62.1137 105.826L43.1114 98.3239L55.8882 115.076L34.292 114.873L47.0688 131.625L28.0024 141.872L49.4045 153.989L32.7638 170.017L53.1021 175.62L41.585 194.8L63.6611 195.927L56.5216 215.706L77.6378 214.987L73.78 237.726L94.7662 231.172L92.6983 251.769L111.227 248.306L114.684 269.477L131.481 260.45L135.898 283.466L151.229 270.504L159.304 292.735L173.435 277.465L178.975 299.288L192.6 281.927L196.699 300.981L211.206 281.966L219.605 298.119L226.661 284.88L237.038 297.017L244.949 280.956L258.18 297.464L262.732 274.942L281.034 292.268L282.434 272.621L297.831 283.241L299.684 263.35L317.805 272.507L308.206 254.047L328.654 254.277L314.029 247.374L326.014 249.2L316.221 242.654L329.088 242.825L313.821 238.039L328.932 235.823L312.142 234.808L324.853 227.977L309.262 229.27L328.328 219.024L305.182 221.424L307.01 200.366L288.852 210.125L277.333 187.973L262.002 200.935L248.787 187.973" stroke="black" stroke-width="3"/>
</svg>
