<svg width="578" height="670" viewBox="0 0 578 670" fill="none" xmlns="http://www.w3.org/2000/svg">
<path d="M191.459 418.052C160.544 420.156 147.163 416.892 109.191 426.031C69.8982 435.489 61.8887 464.463 64.4181 495.713C66.9474 526.964 105.495 536.842 137.488 539.288C168.189 541.635 216.92 536.717 216.92 536.717C216.92 536.717 256.691 535.219 281.091 528.995C318.355 519.489 353.095 505.716 382.752 488.553C424.966 464.122 443.752 452.738 471.844 409.044C498.917 366.936 515.459 325.634 515.569 274.358C515.595 262.456 504.741 205.019 504.741 205.019C504.741 205.019 497.508 168.028 486.974 145.895C477.281 125.529 467.395 115.501 451.493 100.096C435.074 84.1893 407.003 69.1616 398.466 65.1584C363.661 48.8374 322.902 36.9912 298.091 58.9054C282.993 72.2407 279.53 104.529 300.295 112.017C340.643 127.965 378.919 146.269 396.722 192.494C404.396 212.419 408.87 228.141 387.641 247.924C359.58 274.075 344.36 268.201 322.608 254.216C298.823 235.908 268.731 216.701 240.998 204.533C221.844 196.128 176.741 189.2 165.858 221.827C152.732 261.175 174.745 267.721 195.395 279.482C222.586 294.968 261.985 296.769 272.786 331.943C278.591 350.845 277.396 373.251 263.919 394.213C249.614 416.462 212.23 416.637 191.459 418.052Z" stroke="black" stroke-width="3" stroke-linecap="round" stroke-linejoin="round"/>
</svg>
