<svg width="690" height="833" viewBox="0 0 690 833" fill="none" xmlns="http://www.w3.org/2000/svg">
<path d="M541.383 113.014C541.383 113.014 489.648 95.2529 455.101 91.7822C425.988 88.8574 408.526 85.7606 380.133 93.1719C359.367 98.5926 346.968 102.66 330.022 115.977C304.348 136.152 295.711 152.671 286.942 187.87C273.523 241.732 294.426 291.593 261.01 335.468C233.147 372.052 183.089 366.2 149.24 390.312C113.23 415.964 97.7599 434.827 78.8355 474.936C39.5598 558.176 -10.5626 681.442 120.844 706.136C160.148 713.522 193.58 718.352 232.863 713.116C273.693 707.673 288.242 699.707 294.035 662.514C302.849 605.926 280.737 546.733 289 491.082C295.204 449.298 309.971 395.273 360.879 387.874C431.48 377.613 545.284 441.76 601.116 364.926C631.824 322.666 640.435 294.739 641.679 241.074C642.39 210.42 637.069 182.577 618.712 158.264C596.56 128.924 541.383 113.014 541.383 113.014Z" stroke="black" stroke-width="3" stroke-linecap="round" stroke-linejoin="round"/>
</svg>
