<svg width="634" height="725" viewBox="0 0 634 725" fill="none" xmlns="http://www.w3.org/2000/svg">
<path d="M204.602 353.754C151.635 347.762 121.483 368.618 82.9008 407.105C71.6643 418.314 62.8334 431.088 52.1199 447.942C38.3695 469.573 22.751 506.639 22.751 506.639C22.751 506.639 8.36092 541.845 30.5885 553.951C53.31 566.326 100.463 531.874 100.463 531.874C100.463 531.874 152.337 493.638 187.124 483.248C218.678 473.824 285.434 533.583 285.434 533.583C285.434 533.583 339.677 592.092 371.769 598.576C420.808 608.484 416.921 578.298 414.953 538.641C411.601 471.079 351.431 387.846 412.825 330.635C428.173 316.333 440.719 308.528 458.576 297.652C492.357 277.077 540.501 245.518 540.501 245.518C540.501 245.518 591.572 205.619 583.06 179.02C577.639 162.079 567.313 152.765 552.205 143.377C468.489 91.3583 336.728 137.567 319.193 253.488C313.849 288.813 326.642 355.346 296.531 380.779C276.003 398.118 226.678 356.252 204.602 353.754Z" stroke="black" stroke-width="3" stroke-linecap="round" stroke-linejoin="round"/>
</svg>
