<svg width="607" height="607" viewBox="0 0 607 607" fill="none" xmlns="http://www.w3.org/2000/svg">
<path d="M217.862 233.527C234.09 239.984 257.618 237.628 278.161 225.127C292.005 216.703 297.882 206.266 306.632 194.953C318.393 179.745 328.687 169.418 345.104 156.426C407.495 107.054 477.589 145.769 477.008 199.942C476.671 231.388 453.505 243.531 431.7 265.857C409.408 288.683 359.747 300.953 365.304 313.437C371.984 328.444 453.925 295.473 498.443 304.655C536.476 312.499 539.115 361.95 533.227 378.888C526.152 399.24 514.082 411.684 494.22 423.735C474.807 435.514 464.192 433.588 444.176 434.917C417.843 436.666 377.041 425.775 377.041 425.775C377.041 425.775 318.568 413.432 315.973 427.178C313.21 441.815 358.592 462.069 345.831 485.243C335.765 503.524 307.47 530.603 273.268 535.093C223.204 541.665 185.226 513.162 164.649 462.957C148.319 423.113 213.448 380.624 177.333 347.846C157.97 330.271 109.549 322.113 109.549 322.113C109.549 322.113 76.5876 312.723 64.8537 298.143C50.4888 280.295 51.593 260.424 57.7537 238.561C64.0859 216.09 82.9343 205.427 98.1329 194.813C130.834 171.974 156.161 161.328 185.136 183.269C197.438 192.584 207.701 229.484 217.862 233.527Z" stroke="black" stroke-width="3" stroke-linecap="round" stroke-linejoin="round"/>
</svg>
