<svg width="159" height="159" viewBox="0 0 159 159" fill="none" xmlns="http://www.w3.org/2000/svg">
<ellipse cx="80" cy="79" rx="79" ry="78" fill="#ECEF4D"/>
<ellipse cx="80" cy="79.5" rx="11" ry="11.5" fill="black"/>
<circle cx="79.5" cy="79.5" r="78.5" stroke="black" stroke-width="2"/>
<path d="M79.9758 78.8507L64.1716 3M79.9758 78.8507L130.13 21.3881M79.9758 78.8507H158M79.9758 78.8507L140.349 131.257M79.9758 78.8507L91.1124 157M79.9758 78.8507L37.2308 146.887M79.9758 78.8507L2.39349 99.997M79.9758 78.8507L8.89645 46.6716M79.9758 78.8507L30.7278 19.5493M79.9758 78.8507L1 72.4149M79.9758 78.8507L15.8639 126.66M79.9758 78.8507L64.1716 157M79.9758 78.8507L118.053 148.266M79.9758 78.8507L154.749 105.973M79.9758 78.8507L150.104 46.6716M79.9758 78.8507L103.189 4.3791" stroke="black" stroke-width="2"/>
</svg>
